<?xml version="1.0" encoding="UTF-8" standalone="no"?>
<!-- Created with Inkscape (http://www.inkscape.org/) -->

<svg
   width="297mm"
   height="297mm"
   viewBox="0 0 297 297"
   version="1.1"
   id="svg5"
   xml:space="preserve"
   inkscape:version="1.1.2 (0a00cf5339, 2022-02-04)"
   sodipodi:docname="icon.svg"
   xmlns:inkscape="http://www.inkscape.org/namespaces/inkscape"
   xmlns:sodipodi="http://sodipodi.sourceforge.net/DTD/sodipodi-0.dtd"
   xmlns="http://www.w3.org/2000/svg"
   xmlns:svg="http://www.w3.org/2000/svg"><sodipodi:namedview
     id="namedview7"
     pagecolor="#ffffff"
     bordercolor="#666666"
     borderopacity="1.0"
     inkscape:showpageshadow="2"
     inkscape:pageopacity="0.0"
     inkscape:pagecheckerboard="0"
     inkscape:deskcolor="#d1d1d1"
     inkscape:document-units="mm"
     showgrid="false"
     inkscape:zoom="0.49638341"
     inkscape:cx="1399.1201"
     inkscape:cy="707.11469"
     inkscape:window-width="1366"
     inkscape:window-height="709"
     inkscape:window-x="0"
     inkscape:window-y="25"
     inkscape:window-maximized="1"
     inkscape:current-layer="layer1"
     inkscape:pageshadow="2" /><defs
     id="defs2"><symbol
       viewBox="0 0 24 24"
       id="ic_verified_user_24px"><path
         d="M 12,1 3,5 v 6 c 0,5.55 3.84,10.74 9,12 5.16,-1.26 9,-6.45 9,-12 V 5 Z M 10,17 6,13 7.41,11.59 10,14.17 16.59,7.58 18,9 Z"
         id="path846" /></symbol></defs><g
     inkscape:label="Layer 1"
     inkscape:groupmode="layer"
     id="layer1"><g
       id="g5615"
       transform="matrix(14.455795,0,0,14.117068,-2074.4162,-955.32945)"><path
         style="fill:#000000;stroke-width:0.264583"
         d="m 152.02484,87.295033 c -6.20866,-3.861459 -6.74772,-4.461178 -6.7391,-12.010757 l -0.003,-5.339983 c 2.95023,-0.518569 5.46373,-0.819271 8.46137,-1.180589 2.82594,0.285446 5.91528,0.820838 8.47197,1.180589 v 5.354179 c 0.10228,6.29006 -0.0303,7.955333 -5.84623,11.464484 -2.66816,1.51403 -2.28277,1.881934 -4.34584,0.532077 z m 1.73731,-0.721416 c 7.90822,-4.454695 7.17992,-5.139829 7.07248,-11.287153 l -0.0729,-4.172536 -7.00717,-0.921547 c -2.33858,0.302294 -4.67717,0.604586 -7.01575,0.906878 l -0.0782,4.101042 c -0.12536,6.574194 -0.22366,7.488091 7.10154,11.353546 0,0 0.12255,0.07856 -0.027,0.0061 z m -6.36191,-9.521233 v -3.96875 h 1.02498 1.02497 l 1.42242,2.168686 1.42242,2.168685 0.0764,-2.300977 0.0765,-2.300978 h 2.37945 c 3.61833,0 4.91927,0.773957 4.7437,2.78687 -0.0399,0.772509 -0.2775,1.142506 -0.76507,1.684263 l -0.76508,0.714689 0.78577,1.04511 c 0.43218,0.574811 0.89972,1.25347 1.03897,1.508131 l 0.2532,0.463021 h -1.06303 -1.06303 l -1.46382,-2.182812 -1.46383,-2.182813 1.1016,-0.132292 c 1.16546,-0.13996 1.74617,-0.700484 1.47035,-1.419245 -0.26299,-0.447918 -1.11325,-0.432838 -1.7619,-0.432838 h -1.5958 v 3.175 3.175 H 153.5197 152.76 l -1.5554,-2.377099 c -1.91916,-2.933034 -1.93838,-2.917824 -1.93874,-2.780229 l -0.0135,5.157279 h -0.92605 -0.92604 z"
         id="path5516"
         sodipodi:nodetypes="ccccccccccscccssccccccccccscccsscccccscccccccsscccc" /></g></g></svg>
